<?xml version="1.0" encoding="utf-8"?>
<!-- Generator: Adobe Illustrator 16.0.0, SVG Export Plug-In . SVG Version: 6.00 Build 0)  -->
<!DOCTYPE svg PUBLIC "-//W3C//DTD SVG 1.1//EN" "http://www.w3.org/Graphics/SVG/1.1/DTD/svg11.dtd">
<svg version="1.1" id="Layer_1" xmlns="http://www.w3.org/2000/svg" xmlns:xlink="http://www.w3.org/1999/xlink" x="0px" y="0px"
	 width="350.335px" height="253.02px" viewBox="0 0 350.335 253.02" enable-background="new 0 0 350.335 253.02"
	 xml:space="preserve">
<g>
	<polygon points="275.08,242.264 49.475,242.264 58.166,210.382 7.677,93.626 80.936,93.625 103.555,9.483 336.955,9.483 	"/>
	<g>
		<path fill="#FFFFFF" d="M275.08,239.264c-47.641,0-95.28,0-142.92,0c-27.562,0-55.123,0-82.685,0
			c0.964,1.266,1.929,2.531,2.893,3.798c2.897-10.628,5.794-21.255,8.691-31.882c0.508-1.863-1.449-4.962-2.158-6.603
			c-1.938-4.479-3.875-8.96-5.812-13.439c-12.006-27.765-24.012-55.528-36.019-83.292c-2.268-5.245-4.536-10.489-6.804-15.733
			c-0.863,1.505-1.727,3.009-2.59,4.514c24.419,0,48.839,0,73.259-0.001c1.328,0,2.546-0.915,2.893-2.203
			c7.54-28.047,15.079-56.095,22.619-84.143c-0.964,0.734-1.929,1.468-2.893,2.203c46.993,0,93.986,0,140.978,0
			c30.808,0,61.614,0,92.422,0c-0.964-1.266-1.929-2.532-2.893-3.797c-11.931,44.883-23.861,89.767-35.791,134.65
			c-8.695,32.71-17.39,65.421-26.084,98.131c-0.995,3.744,4.792,5.331,5.785,1.596c11.931-44.884,23.861-89.767,35.791-134.65
			c8.695-32.71,17.39-65.421,26.084-98.131c0.501-1.883-0.929-3.797-2.893-3.797c-46.993,0-93.985,0-140.979,0
			c-30.807,0-61.614,0-92.421,0c-1.328,0-2.546,0.915-2.893,2.203c-7.54,28.047-15.079,56.095-22.619,84.143
			c0.964-0.734,1.929-1.468,2.893-2.203c-24.419,0-48.839,0-73.259,0.001c-2.481,0-3.461,2.501-2.59,4.514
			c9.009,20.833,18.019,41.667,27.027,62.501c5.827,13.475,11.654,26.949,17.481,40.424c1.659,3.837,3.318,7.674,4.978,11.51
			c0.312,0.724,0.625,1.446,0.938,2.169c0.448,1.036,0.043-3.187-0.327-1.829c-0.271,0.995-0.542,1.99-0.814,2.985
			c-2.596,9.521-5.191,19.044-7.788,28.565c-0.513,1.883,0.939,3.798,2.893,3.798c47.64,0,95.28,0,142.92,0
			c27.562,0,55.123,0,82.685,0C278.949,245.264,278.949,239.264,275.08,239.264z"/>
	</g>
</g>
<polygon opacity="0.6" fill="#FFDE17" points="68.953,198.46 131.31,198.46 92.698,109.479 30.363,109.479 "/>
<polygon fill="#FFDE17" points="131.31,198.46 68.953,198.46 115.195,25.403 177.551,25.403 "/>
<polygon opacity="0.6" fill="#FFDE17" points="270.455,198.46 145.954,198.46 155.964,161 280.532,161 "/>
<polygon fill="#FFDE17" points="240.119,79.069 254.458,25.403 192.287,25.337 160.058,145.146 222.545,145.146 208.216,198.46 
	270.711,198.46 302.273,78.976 "/>
<polygon opacity="0.6" fill="#FFDE17" points="306.784,63.121 182.319,63.121 192.464,25.404 316.845,25.404 "/>
<g>
	<path fill="#FFFFFF" d="M74.108,210.378l7.706,0.001c0.984,0,1.854,0.113,2.61,0.342c0.757,0.23,1.368,0.567,1.83,1.016
		c0.462,0.447,0.769,1.005,0.917,1.67c0.148,0.668,0.104,1.447-0.132,2.344c-0.167,0.637-0.391,1.179-0.665,1.626
		c-0.277,0.447-0.542,0.819-0.798,1.119c-0.312,0.358-0.636,0.657-0.976,0.896c0.359,0.277,0.66,0.635,0.898,1.073
		c0.195,0.377,0.339,0.856,0.434,1.434c0.093,0.576,0.031,1.281-0.19,2.117c-0.252,0.955-0.648,1.82-1.188,2.598
		c-0.54,0.774-1.191,1.435-1.956,1.982c-0.765,0.547-1.633,0.966-2.606,1.254c-0.971,0.288-2.007,0.432-3.11,0.434l-8.031-0.002
		L74.108,210.378z M76.878,225.599c1.496,0,2.397-0.579,2.702-1.732s-0.292-1.732-1.787-1.732l-0.709,0.002l-0.913,3.462
		L76.878,225.599z M80.776,216.436c0.241-0.914-0.13-1.372-1.113-1.372h-0.709l-0.726,2.745h0.708
		C79.92,217.81,80.534,217.35,80.776,216.436z"/>
	<path fill="#FFFFFF" d="M90.672,210.379h6.791c1.26,0,2.381,0.17,3.365,0.507c0.985,0.339,1.783,0.836,2.396,1.494
		c0.614,0.655,1.016,1.467,1.204,2.432c0.188,0.965,0.116,2.073-0.215,3.326c-0.263,0.997-0.623,1.841-1.083,2.537
		c-0.46,0.695-0.917,1.273-1.373,1.73c-0.531,0.517-1.089,0.955-1.675,1.313l1.957,6.565h-7.382l-1.619-5.044l-1.333,5.044
		l-6.289-0.003L90.672,210.379z M94.376,220.167H94.7c0.75,0,1.428-0.167,2.039-0.506c0.612-0.338,1.022-0.905,1.232-1.7
		c0.21-0.796,0.099-1.362-0.333-1.702c-0.433-0.337-1.022-0.506-1.771-0.506h-0.325L94.376,220.167z"/>
	<path fill="#FFFFFF" d="M115.062,210.381h4.724l2.213,19.903h-6.201l-0.177-1.79h-5.965l-1.122,1.79h-6.2L115.062,210.381z
		 M115.125,224.108l-0.406-3.491l-2.251,3.491H115.125z"/>
	<path fill="#FFFFFF" d="M133.019,215.604h-5.431l3.387-5.222h12.607l-10.728,14.682l6.466,0.002l-3.359,5.222l-13.67-0.003
		L133.019,215.604z"/>
	<path fill="#FFFFFF" d="M144.468,210.382h6.674l-5.259,19.905h-6.671L144.468,210.382z"/>
	<path fill="#FFFFFF" d="M153.208,210.383h6.553l-3.877,14.683h5.433l-1.379,5.222H147.95L153.208,210.383z"/>
	<path fill="#FFFFFF" d="M162.378,225.513l2.155,0.001c0.631,0,1.086-0.121,1.366-0.358c0.278-0.238,0.476-0.577,0.592-1.016
		l3.634-13.755h6.497l-3.926,14.861c-0.489,1.85-1.252,3.152-2.288,3.908c-1.037,0.758-2.47,1.134-4.3,1.134l-4.99-0.001
		L162.378,225.513z"/>
	<path fill="#FFFFFF" d="M174.443,224.111c0.395,0.141,0.819,0.25,1.27,0.328c0.369,0.102,0.795,0.181,1.282,0.241
		c0.485,0.06,0.983,0.09,1.497,0.09c0.904,0,1.446-0.34,1.627-1.016c0.067-0.26-0.001-0.522-0.205-0.791
		c-0.205-0.268-0.477-0.566-0.812-0.895c-0.338-0.328-0.694-0.692-1.071-1.09c-0.378-0.397-0.709-0.854-0.996-1.373
		c-0.285-0.518-0.482-1.1-0.586-1.746c-0.104-0.646-0.047-1.388,0.172-2.223c0.249-0.935,0.636-1.76,1.158-2.477
		c0.523-0.716,1.144-1.314,1.861-1.79c0.717-0.479,1.505-0.841,2.37-1.09c0.861-0.249,1.746-0.373,2.651-0.372
		c0.474-0.001,0.939,0.024,1.398,0.074c0.457,0.051,0.869,0.093,1.233,0.134c0.417,0.061,0.825,0.12,1.222,0.18l-1.475,5.579
		c-0.15-0.02-0.324-0.039-0.515-0.058c-0.153-0.021-0.326-0.041-0.518-0.061c-0.191-0.021-0.394-0.03-0.611-0.03
		c-0.116,0-0.268,0.005-0.446,0.016c-0.18,0.01-0.354,0.034-0.521,0.073c-0.17,0.04-0.326,0.111-0.468,0.21
		c-0.146,0.099-0.241,0.238-0.288,0.417c-0.042,0.16,0.039,0.357,0.241,0.599c0.203,0.237,0.452,0.517,0.753,0.834
		c0.301,0.319,0.627,0.686,0.979,1.104c0.351,0.42,0.648,0.897,0.89,1.433c0.241,0.538,0.408,1.144,0.494,1.82
		s0.021,1.433-0.201,2.268c-0.23,0.877-0.586,1.696-1.063,2.463s-1.082,1.434-1.813,1.999c-0.73,0.568-1.593,1.016-2.583,1.343
		c-0.992,0.328-2.107,0.492-3.348,0.492c-0.75,0-1.434-0.034-2.055-0.104c-0.622-0.071-1.166-0.155-1.632-0.255
		c-0.544-0.102-1.034-0.219-1.47-0.358L174.443,224.111z"/>
	<path fill="#FFFFFF" d="M194.715,220.353c0.421-1.591,1.076-3.028,1.967-4.313c0.89-1.281,1.928-2.38,3.116-3.295
		c1.185-0.914,2.473-1.615,3.86-2.105c1.39-0.485,2.793-0.73,4.21-0.73c1.123,0,2.092,0.111,2.911,0.33
		c0.817,0.218,1.504,0.467,2.061,0.746c0.644,0.317,1.183,0.666,1.615,1.044l-4.56,5.521c-0.252-0.24-0.537-0.467-0.853-0.687
		c-0.293-0.158-0.65-0.314-1.073-0.462c-0.423-0.149-0.931-0.225-1.521-0.225c-0.61,0-1.2,0.109-1.77,0.328
		s-1.098,0.518-1.579,0.894c-0.484,0.38-0.901,0.823-1.252,1.329c-0.352,0.506-0.603,1.05-0.754,1.626
		c-0.153,0.578-0.184,1.12-0.091,1.627c0.094,0.508,0.285,0.951,0.579,1.327c0.294,0.379,0.678,0.678,1.15,0.896
		c0.474,0.219,1.025,0.328,1.656,0.328c0.63,0,1.211-0.079,1.746-0.238c0.534-0.16,0.993-0.339,1.382-0.536
		c0.452-0.219,0.865-0.479,1.238-0.777l1.642,5.521c-0.646,0.438-1.38,0.826-2.196,1.163c-0.705,0.279-1.529,0.538-2.479,0.777
		c-0.95,0.238-1.995,0.357-3.137,0.357c-1.535,0-2.885-0.254-4.051-0.761c-1.166-0.508-2.099-1.219-2.802-2.134
		c-0.704-0.917-1.151-2.015-1.345-3.298C194.197,223.322,194.306,221.906,194.715,220.353z"/>
	<path fill="#FFFFFF" d="M211.074,220.354c0.378-1.433,1.006-2.785,1.885-4.061c0.878-1.271,1.907-2.381,3.093-3.325
		c1.184-0.943,2.479-1.689,3.884-2.238c1.403-0.546,2.815-0.819,4.232-0.818c1.419,0,2.684,0.273,3.797,0.819
		c1.117,0.549,2.018,1.294,2.701,2.239c0.688,0.944,1.132,2.054,1.337,3.326c0.204,1.274,0.118,2.628-0.261,4.06
		c-0.378,1.431-1.008,2.785-1.883,4.059c-0.879,1.272-1.911,2.382-3.095,3.328c-1.185,0.943-2.479,1.689-3.885,2.235
		c-1.402,0.548-2.813,0.821-4.231,0.821c-1.417,0-2.684-0.273-3.799-0.821c-1.116-0.547-2.017-1.292-2.701-2.238
		c-0.684-0.944-1.13-2.053-1.335-3.327C210.607,223.14,210.695,221.787,211.074,220.354z M217.274,220.354
		c-0.153,0.579-0.188,1.121-0.104,1.627c0.083,0.507,0.261,0.95,0.534,1.327c0.274,0.378,0.634,0.677,1.077,0.896
		c0.445,0.219,0.951,0.328,1.523,0.328c0.57,0.002,1.136-0.109,1.695-0.327c0.56-0.219,1.077-0.519,1.551-0.896
		c0.473-0.377,0.887-0.82,1.236-1.327c0.351-0.506,0.603-1.048,0.756-1.625c0.15-0.578,0.186-1.12,0.104-1.626
		c-0.082-0.507-0.263-0.95-0.533-1.329c-0.276-0.379-0.635-0.678-1.078-0.895c-0.443-0.221-0.953-0.33-1.523-0.329
		c-0.57,0-1.136,0.108-1.695,0.329c-0.562,0.217-1.077,0.516-1.551,0.894c-0.475,0.379-0.885,0.821-1.235,1.328
		C217.678,219.236,217.427,219.778,217.274,220.354z"/>
	<path fill="#FFFFFF" d="M236,210.388l5.166,0.002l3.406,7.669l2.028-7.669h6.17l-5.259,19.903l-5.196,0.001l-3.387-7.64
		l-2.017,7.639h-6.172L236,210.388z"/>
	<path fill="#FFFFFF" d="M254.835,210.39l11.604,0.002l-1.379,5.222l-5.315-0.001l-0.583,2.208h5.227l-1.309,4.954h-5.226
		l-1.985,7.52h-6.29L254.835,210.39z"/>
</g>
</svg>
